<mxfile host="app.diagrams.net" modified="2022-01-11T08:30:53.551Z" agent="5.0 (Macintosh; Intel Mac OS X 10_15_7) AppleWebKit/537.36 (KHTML, like Gecko) Chrome/96.0.4664.110 Safari/537.36" etag="XK421bERlOJjeo3RruiS" version="16.2.4" type="github">
  <diagram id="1yzQ9n3bX9XZIDNbpLdn" name="Page-1">
    <mxGraphModel dx="1426" dy="794" grid="1" gridSize="10" guides="1" tooltips="1" connect="1" arrows="1" fold="1" page="1" pageScale="1" pageWidth="3300" pageHeight="4681" math="0" shadow="0">
      <root>
        <mxCell id="0" />
        <mxCell id="1" parent="0" />
        <mxCell id="QTsBgi_JLnD7-ttwWDAb-19" value="FilterBoxMini 插件&lt;br&gt;&lt;br&gt;&lt;br&gt;&lt;br&gt;&lt;br&gt;&lt;br&gt;&lt;br&gt;" style="rounded=0;whiteSpace=wrap;html=1;fontColor=#330000;" vertex="1" parent="1">
          <mxGeometry x="130" y="50" width="320" height="135" as="geometry" />
        </mxCell>
        <mxCell id="QTsBgi_JLnD7-ttwWDAb-37" value="Chart 组件&lt;br&gt;&lt;br&gt;&lt;br&gt;&lt;br&gt;&lt;br&gt;&lt;br&gt;&lt;br&gt;&lt;br&gt;&lt;br&gt;" style="rounded=0;whiteSpace=wrap;html=1;fontColor=#FF6666;" vertex="1" parent="1">
          <mxGeometry x="480" y="45" width="540" height="135" as="geometry" />
        </mxCell>
        <mxCell id="QTsBgi_JLnD7-ttwWDAb-15" style="edgeStyle=orthogonalEdgeStyle;rounded=0;orthogonalLoop=1;jettySize=auto;html=1;exitX=1;exitY=0.5;exitDx=0;exitDy=0;fontColor=#330000;" edge="1" parent="1" source="QTsBgi_JLnD7-ttwWDAb-7" target="QTsBgi_JLnD7-ttwWDAb-13">
          <mxGeometry relative="1" as="geometry" />
        </mxCell>
        <mxCell id="QTsBgi_JLnD7-ttwWDAb-3" value="filter change&lt;br&gt;" style="verticalLabelPosition=bottom;verticalAlign=top;html=1;strokeWidth=2;shape=mxgraph.arrows2.arrow;dy=0.6;dx=40;notch=0;" vertex="1" parent="1">
          <mxGeometry x="50" y="105" width="70" height="30" as="geometry" />
        </mxCell>
        <mxCell id="QTsBgi_JLnD7-ttwWDAb-6" value="" style="endArrow=classic;html=1;rounded=0;entryX=0;entryY=0.5;entryDx=0;entryDy=0;" edge="1" parent="1" target="QTsBgi_JLnD7-ttwWDAb-4">
          <mxGeometry width="50" height="50" relative="1" as="geometry">
            <mxPoint x="120" y="120" as="sourcePoint" />
            <mxPoint x="170" y="70" as="targetPoint" />
          </mxGeometry>
        </mxCell>
        <mxCell id="QTsBgi_JLnD7-ttwWDAb-13" value="&lt;font color=&quot;#330000&quot;&gt;chart/ChartRender.jsx&lt;/font&gt;&lt;br&gt;&lt;div style=&quot;background-color: rgb(255 , 255 , 255) ; font-family: &amp;#34;menlo&amp;#34; , &amp;#34;monaco&amp;#34; , &amp;#34;courier new&amp;#34; , monospace ; line-height: 18px&quot;&gt;&lt;div style=&quot;text-align: left&quot;&gt;&lt;font color=&quot;#330000&quot;&gt;this.hooks ={&lt;/font&gt;&lt;span style=&quot;text-align: center&quot;&gt;onAddFilter&lt;/span&gt;&lt;span style=&quot;text-align: center&quot;&gt;:&lt;/span&gt;&lt;span style=&quot;text-align: center&quot;&gt;this&lt;/span&gt;&lt;span style=&quot;text-align: center&quot;&gt;.&lt;/span&gt;&lt;span style=&quot;text-align: center&quot;&gt;handleAddFilter&lt;font color=&quot;#330000&quot;&gt;}&lt;/font&gt;&lt;/span&gt;&lt;/div&gt;&lt;div style=&quot;text-align: left&quot;&gt;&lt;div style=&quot;font-family: &amp;#34;menlo&amp;#34; , &amp;#34;monaco&amp;#34; , &amp;#34;courier new&amp;#34; , monospace ; line-height: 18px&quot;&gt;&lt;font color=&quot;#330000&quot;&gt;handleAddFilter(){this.props.&lt;/font&gt;addFilter&lt;font color=&quot;#330000&quot;&gt;();}&lt;/font&gt;&lt;/div&gt;&lt;/div&gt;&lt;/div&gt;" style="rounded=0;whiteSpace=wrap;html=1;fontColor=#FF6666;" vertex="1" parent="1">
          <mxGeometry x="500" y="70" width="340" height="80" as="geometry" />
        </mxCell>
        <mxCell id="QTsBgi_JLnD7-ttwWDAb-16" value="chart/Chart.jsx&lt;br&gt;this.props.&lt;font color=&quot;#ff6666&quot;&gt;addFilter&lt;/font&gt;()" style="rounded=0;whiteSpace=wrap;html=1;fontColor=#330000;" vertex="1" parent="1">
          <mxGeometry x="870" y="80" width="120" height="60" as="geometry" />
        </mxCell>
        <mxCell id="QTsBgi_JLnD7-ttwWDAb-17" value="" style="endArrow=classic;html=1;rounded=0;fontColor=#330000;entryX=0;entryY=0.5;entryDx=0;entryDy=0;exitX=1;exitY=0.5;exitDx=0;exitDy=0;" edge="1" parent="1" source="QTsBgi_JLnD7-ttwWDAb-13" target="QTsBgi_JLnD7-ttwWDAb-16">
          <mxGeometry width="50" height="50" relative="1" as="geometry">
            <mxPoint x="820" y="120" as="sourcePoint" />
            <mxPoint x="870" y="70" as="targetPoint" />
          </mxGeometry>
        </mxCell>
        <mxCell id="QTsBgi_JLnD7-ttwWDAb-27" value="dashboard/components/gridComponents/Chart.jsx&lt;br&gt;&lt;div style=&quot;background-color: rgb(255 , 255 , 255) ; font-family: &amp;#34;menlo&amp;#34; , &amp;#34;monaco&amp;#34; , &amp;#34;courier new&amp;#34; , monospace ; line-height: 18px&quot;&gt;&lt;font color=&quot;#ff6666&quot;&gt; addFilter =&amp;nbsp;this.changeFilter&lt;/font&gt;&lt;/div&gt;&lt;div style=&quot;background-color: rgb(255 , 255 , 255) ; font-family: &amp;#34;menlo&amp;#34; , &amp;#34;monaco&amp;#34; , &amp;#34;courier new&amp;#34; , monospace ; line-height: 18px&quot;&gt;this.changeFilter(){this.props.&lt;font color=&quot;#ff6666&quot;&gt;changeFilter&lt;/font&gt;}&lt;/div&gt;" style="rounded=0;whiteSpace=wrap;html=1;fontColor=#330000;align=center;" vertex="1" parent="1">
          <mxGeometry x="900" y="200" width="330" height="70" as="geometry" />
        </mxCell>
        <mxCell id="QTsBgi_JLnD7-ttwWDAb-28" value="" style="endArrow=classic;html=1;rounded=0;fontColor=#330000;exitX=1;exitY=0.5;exitDx=0;exitDy=0;entryX=0.5;entryY=0;entryDx=0;entryDy=0;" edge="1" parent="1" source="QTsBgi_JLnD7-ttwWDAb-16" target="QTsBgi_JLnD7-ttwWDAb-27">
          <mxGeometry width="50" height="50" relative="1" as="geometry">
            <mxPoint x="1020" y="155" as="sourcePoint" />
            <mxPoint x="1050" y="200" as="targetPoint" />
          </mxGeometry>
        </mxCell>
        <mxCell id="QTsBgi_JLnD7-ttwWDAb-29" value="dashboard/containers/Chart.jsx&lt;br&gt;redux 绑定&lt;br&gt;&lt;div style=&quot;background-color: rgb(255 , 255 , 255) ; font-family: &amp;#34;menlo&amp;#34; , &amp;#34;monaco&amp;#34; , &amp;#34;courier new&amp;#34; , monospace ; line-height: 18px&quot;&gt;mapDispatchToProps&lt;span style=&quot;color: rgb(121 , 94 , 38)&quot;&gt;&amp;nbsp;&lt;/span&gt;&lt;span style=&quot;font-family: &amp;#34;menlo&amp;#34; , &amp;#34;monaco&amp;#34; , &amp;#34;courier new&amp;#34; , monospace&quot;&gt;&lt;font color=&quot;#ff6666&quot;&gt;changeFilter&lt;/font&gt;&lt;/span&gt;&lt;/div&gt;" style="rounded=0;whiteSpace=wrap;html=1;fontColor=#330000;" vertex="1" parent="1">
          <mxGeometry x="940" y="310" width="250" height="70" as="geometry" />
        </mxCell>
        <mxCell id="QTsBgi_JLnD7-ttwWDAb-30" value="" style="endArrow=classic;html=1;rounded=0;fontColor=#330000;exitX=0.5;exitY=1;exitDx=0;exitDy=0;entryX=0.5;entryY=0;entryDx=0;entryDy=0;" edge="1" parent="1" source="QTsBgi_JLnD7-ttwWDAb-27" target="QTsBgi_JLnD7-ttwWDAb-29">
          <mxGeometry width="50" height="50" relative="1" as="geometry">
            <mxPoint x="610" y="350" as="sourcePoint" />
            <mxPoint x="660" y="300" as="targetPoint" />
          </mxGeometry>
        </mxCell>
        <mxCell id="QTsBgi_JLnD7-ttwWDAb-35" style="edgeStyle=orthogonalEdgeStyle;rounded=0;orthogonalLoop=1;jettySize=auto;html=1;exitX=0.5;exitY=1;exitDx=0;exitDy=0;fontColor=#FF6666;" edge="1" parent="1" source="QTsBgi_JLnD7-ttwWDAb-31" target="QTsBgi_JLnD7-ttwWDAb-33">
          <mxGeometry relative="1" as="geometry" />
        </mxCell>
        <mxCell id="QTsBgi_JLnD7-ttwWDAb-31" value="dashboard/actions/dashboardFilter.js&lt;br&gt;redux action&lt;br&gt;&lt;font color=&quot;#ff6666&quot;&gt;changeFilter(){&amp;nbsp; dispatch( {&lt;span style=&quot;font-family: &amp;#34;menlo&amp;#34; , &amp;#34;monaco&amp;#34; , &amp;#34;courier new&amp;#34; , monospace&quot;&gt;type&lt;/span&gt;&lt;span style=&quot;font-family: &amp;#34;menlo&amp;#34; , &amp;#34;monaco&amp;#34; , &amp;#34;courier new&amp;#34; , monospace&quot;&gt;:&lt;/span&gt;&lt;span style=&quot;font-family: &amp;#34;menlo&amp;#34; , &amp;#34;monaco&amp;#34; , &amp;#34;courier new&amp;#34; , monospace&quot;&gt;CHANGE_FILTER&lt;/span&gt;} ) }&lt;/font&gt;" style="rounded=0;whiteSpace=wrap;html=1;fontColor=#330000;" vertex="1" parent="1">
          <mxGeometry x="900" y="430" width="330" height="60" as="geometry" />
        </mxCell>
        <mxCell id="QTsBgi_JLnD7-ttwWDAb-32" value="" style="endArrow=classic;html=1;rounded=0;fontColor=#330000;exitX=0.5;exitY=1;exitDx=0;exitDy=0;" edge="1" parent="1" source="QTsBgi_JLnD7-ttwWDAb-29" target="QTsBgi_JLnD7-ttwWDAb-31">
          <mxGeometry width="50" height="50" relative="1" as="geometry">
            <mxPoint x="610" y="470" as="sourcePoint" />
            <mxPoint x="660" y="420" as="targetPoint" />
          </mxGeometry>
        </mxCell>
        <mxCell id="QTsBgi_JLnD7-ttwWDAb-33" value="dashboard/reducers/dashboardFilter.js&lt;br&gt;redux reducers&lt;br&gt;&lt;div style=&quot;background-color: rgb(255 , 255 , 255) ; font-family: &amp;#34;menlo&amp;#34; , &amp;#34;monaco&amp;#34; , &amp;#34;courier new&amp;#34; , monospace ; line-height: 18px&quot;&gt;&lt;font color=&quot;#ff6666&quot;&gt;执行 CHANGE_FILTER 并更新&amp;nbsp;buildActiveFilters&lt;/font&gt;&lt;/div&gt;" style="rounded=0;whiteSpace=wrap;html=1;fontColor=#330000;" vertex="1" parent="1">
          <mxGeometry x="885" y="540" width="360" height="60" as="geometry" />
        </mxCell>
        <mxCell id="QTsBgi_JLnD7-ttwWDAb-9" value="" style="endArrow=classic;html=1;rounded=0;fontColor=#FF6666;entryX=0;entryY=0.5;entryDx=0;entryDy=0;" edge="1" parent="1" target="QTsBgi_JLnD7-ttwWDAb-7">
          <mxGeometry width="50" height="50" relative="1" as="geometry">
            <mxPoint x="280" y="102.5" as="sourcePoint" />
            <mxPoint x="330" y="52.5" as="targetPoint" />
          </mxGeometry>
        </mxCell>
        <mxCell id="QTsBgi_JLnD7-ttwWDAb-4" value="FilterBox.jsx&lt;br&gt;&lt;font color=&quot;#ff6666&quot;&gt;this.props.onchange&lt;/font&gt;" style="rounded=0;whiteSpace=wrap;html=1;" vertex="1" parent="1">
          <mxGeometry x="160" y="87.5" width="120" height="60" as="geometry" />
        </mxCell>
        <mxCell id="QTsBgi_JLnD7-ttwWDAb-7" value="transformProps.js&lt;br&gt;&lt;div style=&quot;background-color: rgb(255 , 255 , 255) ; font-family: &amp;#34;menlo&amp;#34; , &amp;#34;monaco&amp;#34; , &amp;#34;courier new&amp;#34; , monospace ; line-height: 18px&quot;&gt;&lt;font color=&quot;#ff6666&quot;&gt;onChange: onAddFilter&lt;/font&gt;&lt;/div&gt;" style="rounded=0;whiteSpace=wrap;html=1;" vertex="1" parent="1">
          <mxGeometry x="320" y="87.5" width="120" height="60" as="geometry" />
        </mxCell>
      </root>
    </mxGraphModel>
  </diagram>
</mxfile>
